<svg width="51" height="52" viewBox="0 0 51 52" fill="none" xmlns="http://www.w3.org/2000/svg">
<path d="M36.125 4.625H14.875C9.00697 4.625 4.25 9.38197 4.25 15.25V36.5C4.25 42.368 9.00697 47.125 14.875 47.125H36.125C41.993 47.125 46.75 42.368 46.75 36.5V15.25C46.75 9.38197 41.993 4.625 36.125 4.625Z" stroke="black" stroke-width="2.125" stroke-linecap="round" stroke-linejoin="round"/>
<path d="M34.0004 24.5362C34.2626 26.3048 33.9605 28.111 33.1371 29.6979C32.3137 31.2849 31.0108 32.5718 29.4138 33.3756C27.8168 34.1794 26.0071 34.4591 24.2419 34.1751C22.4767 33.8911 20.8461 33.0577 19.5819 31.7935C18.3177 30.5293 17.4843 28.8986 17.2002 27.1335C16.9162 25.3683 17.196 23.5585 17.9998 21.9615C18.8036 20.3646 20.0905 19.0617 21.6774 18.2383C23.2644 17.4148 25.0706 17.1128 26.8391 17.375C28.6431 17.6425 30.3132 18.4831 31.6027 19.7727C32.8922 21.0622 33.7328 22.7323 34.0004 24.5362Z" stroke="black" stroke-width="2.125" stroke-linecap="round" stroke-linejoin="round"/>
<path d="M37.1875 14.1875H37.2091" stroke="black" stroke-width="4.25" stroke-linecap="round" stroke-linejoin="round"/>
</svg>
