<svg width="48" height="48" viewBox="0 0 48 48" fill="none" xmlns="http://www.w3.org/2000/svg">
<path d="M43 16.976V33.75C43 36.65 40.65 39 37.75 39H10.25C8.85761 39 7.52226 38.4469 6.53769 37.4623C5.55312 36.4777 5 35.1424 5 33.75V16.976L23.398 27.096C23.773 27.302 24.228 27.302 24.602 27.096L43 16.975V16.976ZM37.75 9C39.1205 9.00013 40.4366 9.53615 41.4172 10.4936C42.3978 11.451 42.9651 12.7539 42.998 14.124L24 24.574L5.002 14.123L5.004 14.033C5.06 12.6793 5.63721 11.3996 6.61491 10.4616C7.59261 9.52357 8.8951 8.99987 10.25 9H37.75Z" fill="black"/>
</svg>
