<svg width="45" height="55" viewBox="0 0 45 55" fill="none" xmlns="http://www.w3.org/2000/svg">
<path d="M43.7273 22.8636C43.7273 39.0909 22.8636 53 22.8636 53C22.8636 53 2 39.0909 2 22.8636C2 17.3303 4.19813 12.0235 8.11082 8.11082C12.0235 4.19813 17.3303 2 22.8636 2C28.397 2 33.7038 4.19813 37.6165 8.11082C41.5291 12.0235 43.7273 17.3303 43.7273 22.8636Z" stroke="black" stroke-width="2.31818" stroke-linecap="round" stroke-linejoin="round"/>
<path d="M22.8637 29.8182C26.7046 29.8182 29.8183 26.7045 29.8183 22.8636C29.8183 19.0227 26.7046 15.9091 22.8637 15.9091C19.0228 15.9091 15.9092 19.0227 15.9092 22.8636C15.9092 26.7045 19.0228 29.8182 22.8637 29.8182Z" stroke="black" stroke-width="2.31818" stroke-linecap="round" stroke-linejoin="round"/>
</svg>
